<?xml version="1.0" encoding="UTF-8" standalone="no"?>
<!-- Created with Inkscape (http://www.inkscape.org/) -->

<svg
   xmlns:svg="http://www.w3.org/2000/svg"
   xmlns="http://www.w3.org/2000/svg"
   version="1.1"
   width="270"
   height="170"
   id="svg3051">
  <defs
     id="defs3053" />
  <path
     d="m 90.65625,9.65625 c -4.677465,0.146769 -9.400473,1.782953 -13.125,4.1875 C 62.073889,21.98727 59.729245,39.365 55.3125,54.125 50.624224,54.2669 46.04399,52.9017 41.90625,51.9375 41.0792,53.4571 40.401514,55.0985 40.125,56.75 c 4.414254,1.5196 8.845219,3.0435 13.8125,3.3125 -1.933105,8.6964 -4.838332,16.96965 -7.875,24.96875 -0.964061,1.6541 -1.124659,4.002 -2.78125,5.25 C 34.589754,88.21225 23.277971,85.3383 15,90.4375 c -2.623144,1.9281 -4.137011,4.67265 -4,7.84375 0.416016,4.2748 3.179543,7.47075 6.90625,9.40625 11.728164,5.6574 25.935701,1.63364 35.59375,-5.40625 7.450921,2.62299 14.787067,5.26165 22.375,7.46875 23.316825,6.2053 47.30529,11.73335 72.96875,10.90625 l 0,0.125 c 37.2571,-0.1369 73.95979,-5.787 108.59375,-14.75 l 0.5625,-0.4375 -1.375,-5.375 c -13.93529,3.1737 -28.28092,5.8124 -42.90625,7.1875 -28.84211,1.7986 -57.68688,2.59885 -86.25,0.53125 -23.73284,-1.6565 -46.072771,-6.6167 -67.875,-13.375 C 66.765667,84.0749 69.386282,71.5167 73.25,59.375 c 12.557705,-1.9331 23.436388,-9.50755 29.78125,-20.40625 3.03667,-6.2129 6.07519,-14.37133 2.625,-21.40625 -1.10357,-2.20713 -2.7544,-3.59351 -4.6875,-5.25 -3.077771,-1.99122 -6.674471,-2.7704036 -10.3125,-2.65625 z m 2.03125,7.5 c 1.6541,0.13552 3.319435,-0.0027 4.5625,1.375 3.72173,3.58717 2.606102,10.06905 0.8125,14.34375 -3.866209,10.0765 -13.079694,17.41555 -23.15625,20.03125 2.349121,-10.0691 4.684233,-20.0199 9.375,-29.125 1.793602,-2.8996 4.542533,-6.35098 8.40625,-6.625 z m 54.5,19.5 c -3.46727,-0.02431 -6.35513,1.155475 -8.40625,3.8125 -1.24306,1.7936 -1.51006,4.97555 -0.125,6.90625 1.65161,2.3466 4.39609,3.31965 7.15625,3.59375 3.86372,0.2764 8.55738,-0.55195 10.625,-4.28125 1.10605,-1.796 0.8248,-4.2663 -0.28125,-6.0625 -1.79111,-2.4786 -4.67735,-3.1849 -7.4375,-3.875 -0.51784,-0.0517 -1.03593,-0.09028 -1.53125,-0.09375 z m -40.15625,20.0625 C 101.90921,56.649938 96.614987,57.7882 92.40625,59.375 84.402301,62.4066 77.375,70.9524 77.375,80.0625 c 0.139502,5.2487 3.328518,9.52605 7.46875,12.28125 13.658777,8.0065 30.62755,1.52055 42.90625,-4.96875 0.13701,0.1445 0.41577,0.3 0.28125,0.4375 0.55054,3.8613 4.25654,7.3053 7.84375,8.125 9.38402,1.3825 17.80636,-2.4651 24.84375,-8.125 2.89966,5.3809 9.10465,8.1295 15.3125,8.6875 l 0.15625,-0.15625 c 8.552,0.2741 15.72716,-3.72245 21.9375,-8.96875 1.92813,4.0058 5.24205,6.62475 8.96875,8.28125 7.17939,2.3442 14.7417,0.01045 20.125,-5.09375 0.69003,1.9305 2.50464,3.73765 4.15625,4.84375 8.14345,3.8612 16.82588,-0.9874 23.03125,-5.125 -0.13203,-1.7986 -0.68247,-3.5959 -1.375,-5.25 -2.62065,1.3801 -6.19409,3.4597 -9.09375,1.25 -0.54804,-0.8271 -0.98325,-1.6465 -0.84375,-2.75 L 250.125,58.5625 c -4.96977,-0.1375 -10.34996,-0.29575 -15.59375,-0.15625 l -1.21875,3.875 c -0.69004,-0.9639 -1.53345,-1.95165 -2.5,-2.78125 -5.3833,-3.8613 -13.09268,-2.594 -18.75,-0.25 -8.55448,4.1379 -15.32426,12.0029 -15.46875,21.9375 -4.55126,4.0007 -10.48189,8.5608 -16.96875,5.9375 -3.17119,-1.786 -3.01928,-6.08805 -2.46875,-9.40625 0.96656,-5.2389 2.59747,-11.0333 7.84375,-13.375 3.44272,-1.522 6.76636,0.69915 9.25,2.90625 0.69004,-2.3417 1.52397,-4.6964 1.9375,-7.1875 -7.0374,-4.5514 -17.94585,-3.15695 -24.84375,0.84375 -7.1769,4.2772 -13.23804,11.7076 -12.6875,20.8125 -1.24058,1.2432 -2.76417,2.2378 -4.28125,3.0625 -2.34663,1.106 -5.79761,3.0365 -8.28125,0.6875 -0.55302,-0.827 -0.6875,-1.80515 -0.6875,-2.90625 2.21211,-8.1409 4.54536,-16.4216 6.75,-24.5625 -5.79184,0 -11.85718,-0.1564 -17.375,0.125 l -6.34375,21.8125 c -4.69077,3.1713 -9.92921,5.3799 -15.3125,6.75 -5.2438,1.2456 -12.02325,2.36845 -16.4375,-1.21875 -1.243066,-1.3775 -1.632275,-3.3219 -1.21875,-5.25 9.24452,0.8295 19.29942,-0.429 25.09375,-7.1875 1.65659,-2.6206 2.91132,-6.3287 1.53125,-9.5 l -1.375,-2.21875 c -3.58721,-3.24215 -8.56546,-4.524938 -13.6875,-4.59375 z m 0.28125,5.0625 c 1.37914,0.05139 2.63572,0.55135 3.1875,2 0.69004,3.5846 -0.96583,7.18205 -4,9.53125 -2.89966,1.6541 -6.504053,2.47145 -10.09375,1.78125 1.51958,-4.5511 2.90303,-9.49705 6.90625,-12.53125 1.10356,-0.416 2.62086,-0.832638 4,-0.78125 z m 118.03125,1.9375 c 1.95787,-0.04441 3.53439,0.987887 4.5,2.4375 1.93061,5.5177 -1.50693,10.4702 -2.75,15.4375 -1.10605,2.8973 -3.7373,5.9279 -7.1875,6.75 -1.78862,0.1395 -3.5647,-0.5404 -4.53125,-2.0625 -2.06763,-5.6523 0.80967,-11.17705 2.46875,-16.28125 1.51709,-2.7601 3.59083,-5.11275 6.625,-6.21875 0.29364,-0.05201 0.5953,-0.05616 0.875,-0.0625 z m -199.4375,30.75 c 4.030166,0.05587 8.175696,1.798338 11.875,2.84375 L 38.75,97.75 c -4.277242,3.9957 -11.183892,7.02924 -17.53125,4.40625 -1.103563,-0.6902 -2.625,-1.7979 -2.625,-3.3125 0.139503,-1.3827 0.836428,-2.4974 1.9375,-3.1875 1.725097,-0.906156 3.543107,-1.212895 5.375,-1.1875 z"
     id="path64"
     style="fill:#ed1d30;fill-opacity:1;fill-rule:nonzero;stroke:none" />
  <path
     d="m 41.08128,160.08832 0,-14.8694 5.007139,0 2.324209,10.1114 0.04235,0 2.471185,-10.1114 4.840234,0 0,14.8694 -2.618161,0 0,-11.7381 -0.572956,0 -2.966916,11.7381 -2.568339,0 -2.819941,-11.7381 -0.550536,0 0,11.7381 -2.588267,0"
     id="path78"
     style="fill:#000000;fill-opacity:1;fill-rule:nonzero;stroke:none" />
  <path
     d="m 212.1062,160.08832 0,-14.8694 5.00465,0 2.3267,10.1114 0.0448,0 2.47119,-10.1114 4.83774,0 0,14.8694 -2.61816,0 0,-11.7381 -0.57296,0 -2.96691,11.7381 -2.56834,0 -2.82243,-11.7381 -0.54805,0 0,11.7381 -2.58827,0"
     id="path80"
     style="fill:#000000;fill-opacity:1;fill-rule:nonzero;stroke:none" />
  <path
     d="m 64.066788,160.08832 3.110903,0 0,-14.8694 -3.110903,0 0,14.8694 z"
     id="path82"
     style="fill:#000000;fill-opacity:1;fill-rule:nonzero;stroke:none" />
  <path
     d="m 75.416302,152.65482 c 0,-3.9334 0,-7.6826 5.129204,-7.6826 3.171188,0 4.449129,1.7488 4.327065,4.9424 l -3.051615,0 c 0,-1.9803 -0.346265,-2.7177 -1.27545,-2.7177 -1.751253,0 -1.977945,1.6465 -1.977945,5.4579 0,3.809 0.226692,5.4581 1.977945,5.4581 1.442355,0 1.380077,-1.851 1.419935,-3.0268 l 3.069052,0 c 0,3.9735 -1.584348,5.2539 -4.488987,5.2539 -5.129204,0 -5.129204,-3.7915 -5.129204,-7.6852"
     id="path84"
     style="fill:#000000;fill-opacity:1;fill-rule:nonzero;stroke:none" />
  <path
     d="m 95.828489,147.50582 1.380077,0 c 0.988973,0 1.58684,0.5381 1.58684,1.958 0,0.944 -0.351247,2.1846 -1.58684,2.1846 l -1.380077,0 0,-4.1426 z m 0,6.4271 0.80463,0 c 2.388978,0 2.222074,1.4996 2.222074,3.2757 0,0.9691 -0.08221,1.9755 0.331318,2.8797 l 3.049119,0 c -0.28897,-0.6202 -0.35125,-3.4202 -0.35125,-4.3694 0,-2.6729 -2.017795,-2.8373 -2.697869,-2.9196 l 0,-0.04 c 2.017799,-0.3312 2.760149,-1.7511 2.760149,-3.6493 0,-2.5336 -1.36014,-3.8912 -3.480081,-3.8912 l -5.747,0 0,14.8694 3.10891,0 0,-6.1554"
     id="path86"
     style="fill:#000000;fill-opacity:1;fill-rule:nonzero;stroke:none" />
  <path
     d="m 114.98266,158.11292 c -1.74876,0 -1.97794,-1.6491 -1.97794,-5.4581 0,-3.8114 0.22918,-5.4579 1.97794,-5.4579 1.75125,0 1.97795,1.6465 1.97795,5.4579 0,3.809 -0.2267,5.4581 -1.97795,5.4581 z m 0,2.2271 c 5.1292,0 5.1292,-3.7915 5.1292,-7.6852 0,-3.9334 0,-7.6826 -5.1292,-7.6826 -5.12671,0 -5.12671,3.7492 -5.12671,7.6826 0,3.8937 0,7.6852 5.12671,7.6852"
     id="path88"
     style="fill:#000000;fill-opacity:1;fill-rule:nonzero;stroke:none" />
  <path
     d="m 132.38807,160.34002 c -3.85126,0 -4.57368,-2.2695 -4.40678,-4.8427 l 3.10891,0 c 0,1.4199 0.0623,2.6156 1.77119,2.6156 1.05125,0 1.56691,-0.6825 1.56691,-1.6889 0,-2.6781 -6.26266,-2.8375 -6.26266,-7.2741 0,-2.3267 1.11352,-4.1777 4.905,-4.1777 3.02421,0 4.52884,1.3602 4.32208,4.4691 l -3.0267,0 c 0,-1.1111 -0.18684,-2.2444 -1.44236,-2.2444 -1.0089,0 -1.60676,0.5554 -1.60676,1.5843 0,2.825 6.26266,2.5782 6.26266,7.2492 0,3.8562 -2.82244,4.3096 -5.19149,4.3096"
     id="path90"
     style="fill:#000000;fill-opacity:1;fill-rule:nonzero;stroke:none" />
  <path
     d="m 148.30878,154.94172 -3.89361,-9.7228 3.39788,0 2.22706,6.28 2.36656,-6.28 3.17367,0 -4.16265,9.7228 0,5.1466 -3.10891,0 0,-5.1466"
     id="path92"
     style="fill:#000000;fill-opacity:1;fill-rule:nonzero;stroke:none" />
  <path
     d="m 166.82274,160.34002 c -3.84877,0 -4.5687,-2.2695 -4.4018,-4.8427 l 3.10642,0 c 0,1.4199 0.0623,2.6156 1.77367,2.6156 1.04876,0 1.56442,-0.6825 1.56442,-1.6889 0,-2.6781 -6.26266,-2.8375 -6.26266,-7.2741 0,-2.3267 1.11104,-4.1777 4.90252,-4.1777 3.02919,0 4.52884,1.3602 4.32457,4.4691 l -3.0267,0 c 0,-1.1111 -0.18684,-2.2444 -1.44236,-2.2444 -1.0089,0 -1.60677,0.5554 -1.60677,1.5843 0,2.825 6.26017,2.5782 6.26017,7.2492 0,3.8562 -2.81994,4.3096 -5.19148,4.3096"
     id="path94"
     style="fill:#000000;fill-opacity:1;fill-rule:nonzero;stroke:none" />
  <path
     d="m 188.86162,145.21892 0,2.4712 -3.45766,0 0,12.3982 -3.1114,0 0,-12.3982 -3.45767,0 0,-2.4712 10.02673,0"
     id="path96"
     style="fill:#000000;fill-opacity:1;fill-rule:nonzero;stroke:none" />
  <path
     d="m 196.07091,160.08832 0,-14.8694 8.11854,0 0,2.2869 -5.00465,0 0,3.6619 4.61105,0 0,2.2869 -4.61105,0 0,4.3518 5.16657,0 0,2.2819 -8.28046,0"
     id="path98"
     style="fill:#000000;fill-opacity:1;fill-rule:nonzero;stroke:none" />
  <path
     d="m 239.09991,160.34002 c -3.85126,0 -4.57119,-2.2695 -4.40927,-4.8427 l 3.1139,0 c 0,1.4199 0.0598,2.6156 1.76869,2.6156 1.05125,0 1.56442,-0.6825 1.56442,-1.6889 0,-2.6781 -6.26017,-2.8375 -6.26017,-7.2741 0,-2.3267 1.11352,-4.1777 4.90251,-4.1777 3.0267,0 4.53133,1.3602 4.32457,4.4691 l -3.0267,0 c 0,-1.1111 -0.18674,-2.2444 -1.44236,-2.2444 -1.00641,0 -1.60427,0.5554 -1.60427,1.5843 0,2.825 6.26017,2.5782 6.26017,7.2492 0,3.8562 -2.82244,4.3096 -5.19149,4.3096"
     id="path100"
     style="fill:#000000;fill-opacity:1;fill-rule:nonzero;stroke:none" />
</svg>
